<svg width="536" height="260" viewBox="0 0 536 260" fill="none" xmlns="http://www.w3.org/2000/svg">
<g clip-path="url(#clip0_342_179)">
<path d="M121.29 74.8799L77.59 190.23H100.08L106.87 171.39C111.05 161.4 119.04 160.62 128.31 160.78C128.92 160.78 129.49 160.79 130 160.79H154.58L164.98 190.23H189.08L145.87 74.8799H121.29ZM130 141.19H128.58C126.13 141.14 122.14 141.09 117.54 141.79L132.85 99.2999L147.65 141.19H129.99H130Z" fill="black"/>
<path d="M309.7 106.2V110.81V140.29V190.22H332.03V140.29V110.81V106.2V74.8799H309.7V106.2Z" fill="black"/>
<path d="M268.67 151.65C267.44 150.53 266.18 149.46 264.9 148.43C265.9 148.06 266.89 147.66 267.84 147.23C268.13 147.1 268.39 146.95 268.67 146.82C274.95 143.79 279.85 139.52 283.33 133.98C283.49 133.73 283.62 133.47 283.77 133.22C287.1 127.58 288.79 120.84 288.79 112.94C288.79 104.59 286.97 97.6001 283.33 91.9801C279.69 86.3601 274.52 82.1001 267.83 79.2101C261.14 76.3201 253.24 74.8701 244.14 74.8701H202.22V190.18H224.54V151.62V133V93.8101H243.97C251.04 93.8101 256.55 95.4701 260.51 98.7901C264.47 102.11 266.45 106.88 266.45 113.08C266.45 115.23 266.19 117.22 265.7 119.06C264.8 122.44 263.07 125.3 260.51 127.62C258.37 129.56 255.75 130.96 252.7 131.85C250.11 132.61 247.21 133 243.97 133H243.64L242.86 136.17L239.01 151.79L238.17 155.2C244.14 157.55 249.57 160.84 254.39 165.01C259.74 169.64 264.36 175.34 268.11 182.07C269.54 184.63 270.84 187.33 272.02 190.17H292.78C291.16 185.26 289.24 180.62 287.05 176.25C282.2 166.61 276 158.35 268.65 151.63L268.67 151.65Z" fill="black"/>
<path d="M87.61 112.95C87.61 104.6 85.79 97.6101 82.15 91.9801C78.51 86.3601 73.34 82.1001 66.65 79.2101C59.96 76.3201 52.06 74.8701 42.95 74.8701H1.02002V190.22H23.35V93.8301H42.79C49.86 93.8301 55.37 95.4901 59.34 98.8101C63.3 102.13 65.28 106.9 65.28 113.11C65.28 119.32 63.3 124.06 59.34 127.65C55.38 131.24 49.86 133.03 42.79 133.03V133.05C42.68 133.05 42.56 133.05 42.45 133.05L37.85 151.71C39.35 151.8 40.85 151.86 42.38 151.86C42.69 151.86 43.01 151.86 43.32 151.86V151.83C52.27 151.79 60.05 150.27 66.65 147.26C73.34 144.21 78.51 139.79 82.15 134.01C85.79 128.23 87.61 121.21 87.61 112.97V112.95Z" fill="black"/>
<path d="M525.47 154.98H505.9C505.9 146.78 494.33 136.83 481.71 127.84C480.74 127.15 479.95 126.55 479.38 126.11C478.18 125.19 477.15 124.39 476.2 123.65C472.61 120.86 470.24 119.02 463.32 114.13C451.22 105.59 432.97 94.2399 414.17 94.2399V74.6699C438.54 74.6699 460.33 88.0699 474.61 98.1399C481.89 103.28 484.54 105.34 488.21 108.19C489.14 108.91 490.14 109.69 491.32 110.59C491.8 110.96 492.46 111.44 493.27 112.03C502.91 119.07 525.48 135.57 525.48 154.98H525.47Z" fill="#7B206B"/>
<path d="M488.37 192.09C478.46 192.09 469.14 188.23 462.13 181.22L475.97 167.38C479.28 170.69 483.68 172.51 488.36 172.51C498.03 172.51 505.89 164.65 505.89 154.98H525.46C525.46 175.44 508.82 192.08 488.36 192.08L488.37 192.09Z" fill="#E30F1B"/>
<path d="M522.31 46.71L508.47 60.55C513.35 65.43 516.04 71.92 516.04 78.82C516.04 83.89 514.58 89.06 511.82 93.78C508.92 98.73 504.63 103.13 499.42 106.5C494.28 109.82 489.22 112.66 484.32 115.4C476.09 120.01 468.33 124.36 462.42 129.92C454.91 136.99 451.26 145.19 451.26 154.99C451.26 164.79 455.12 174.22 462.13 181.23L475.97 167.39C472.66 164.08 470.84 159.68 470.84 155C470.84 146.23 477.16 141.86 493.89 132.49C498.81 129.73 504.39 126.6 510.04 122.95C517.81 117.93 524.27 111.26 528.71 103.68C533.22 95.97 535.61 87.38 535.61 78.84C535.61 66.71 530.89 55.3 522.31 46.72V46.71Z" fill="#AE164E"/>
<path d="M464.35 78.8204H444.78C444.78 53.7804 465.15 33.4004 490.2 33.4004C502.33 33.4004 513.74 38.1204 522.31 46.7004L508.47 60.5404C503.59 55.6604 497.1 52.9704 490.2 52.9704C475.95 52.9704 464.36 64.5604 464.36 78.8104L464.35 78.8204Z" fill="#75151F"/>
<path d="M389.41 120.97C386.41 120.33 383.63 119.47 381.06 118.4C378.49 117.33 376.4 115.86 374.8 113.98C373.19 112.11 372.39 109.72 372.39 106.83C372.39 103.94 373.19 101.29 374.8 98.8798C375.69 97.5398 376.82 96.3598 378.13 95.3198L366.7 79.7998C361.99 82.5698 358.14 86.0598 355.21 90.2898C351.57 95.5398 349.75 101.53 349.75 108.28C349.75 113.1 350.55 117.3 352.16 120.89C353.77 124.48 355.99 127.56 358.82 130.13C361.66 132.7 364.95 134.79 368.7 136.39C372.45 138 376.46 139.23 380.75 140.08L396.07 143.04L404.96 124.13L389.42 120.97H389.41Z" fill="#7B206B"/>
<path d="M19.32 28.9497C19.32 33.3697 16.73 35.9997 12.4 35.9997C8.07 35.9997 5.52 33.3597 5.52 28.9497V8.46973H0V28.8197C0 36.2497 4.87 41.0497 12.4 41.0497C19.93 41.0497 24.85 36.2497 24.85 28.8197V8.46973H19.32V28.9497Z" fill="black"/>
<path d="M55.03 31.3297L39.58 8.46973H33.79V40.3997H38.97V16.8897L54.81 40.3997H60.21V8.46973H55.03V31.3297Z" fill="black"/>
<path d="M74.76 8.46973H69.23V40.3997H74.76V8.46973Z" fill="black"/>
<path d="M95.6701 33.3497L86.8501 8.46973H80.9301L92.5801 40.1497L92.6701 40.3997H98.4501L110.19 8.46973H104.61L95.6701 33.3497Z" fill="black"/>
<path d="M121.93 26.4197H135.3V21.4997H121.93V13.3897H136.61V8.46973H116.4V40.3997H136.91V35.4797H121.93V26.4197Z" fill="black"/>
<path d="M169.91 40.3997L161.34 27.8297C165.87 26.5497 168.66 23.0397 168.66 18.5697C168.66 12.2397 164.23 8.46973 156.82 8.46973H144.81V40.3997H150.34V28.6697H155.5L163.27 40.3997H169.91ZM150.34 13.2097H156.52C159.52 13.2097 163.09 14.1397 163.09 18.5697C163.09 22.9997 159.52 23.9297 156.52 23.9297H150.34V13.2197V13.2097Z" fill="black"/>
<path d="M200.02 30.9003C200.02 26.3403 197.27 23.6503 191.38 22.4603L186.78 21.5503C183.11 20.7803 181.61 19.5503 181.61 17.3103C181.61 15.0703 183.45 12.6003 187.49 12.6003C191.12 12.6003 193.73 15.0103 193.98 18.5903L194 18.9403H199.61L199.58 18.5403C199.18 12.2503 194.3 8.03027 187.44 8.03027C180.58 8.03027 175.99 12.0603 175.99 17.6103C175.99 22.2703 178.91 25.2203 184.68 26.3603L189.19 27.2303C192.74 28.0003 194.19 29.2503 194.19 31.5503C194.19 34.4103 191.63 36.2603 187.66 36.2603C183.28 36.2603 180.74 34.0703 180.52 30.1003L180.5 29.7503H174.88L174.91 30.1503C175.32 36.7403 180.24 40.8403 187.75 40.8403C195.26 40.8403 200.02 36.8503 200.02 30.9103V30.9003Z" fill="black"/>
<path d="M213.36 8.46973H207.83V40.3997H213.36V8.46973Z" fill="black"/>
<path d="M219.86 13.5197H230.02V40.3997H235.55V13.5197H245.71V8.46973H219.86V13.5197Z" fill="black"/>
<path d="M270.51 0H264.38L259.47 6.96H265.11L270.51 0Z" fill="black"/>
<path d="M272.73 35.4797H257.74V26.4197H271.12V21.4997H257.74V13.3897H272.42V8.46973H252.22V40.3997H272.73V35.4797Z" fill="black"/>
<path d="M166.33 226.49H156.1V258.42H166.33C175.93 258.42 182.38 251.95 182.38 242.32C182.38 232.69 176.08 226.49 166.33 226.49ZM161.62 231.37H166.11C172.88 231.37 176.77 235.36 176.77 242.33C176.77 249.3 172.89 253.55 166.11 253.55H161.62V231.37Z" fill="black"/>
<path d="M195.2 244.44H208.57V239.52H195.2V231.41H209.88V226.49H189.67V258.42H210.18V253.5H195.2V244.44Z" fill="black"/>
<path d="M232.99 240.48L228.39 239.57C224.72 238.8 223.22 237.58 223.22 235.33C223.22 233.08 225.06 230.62 229.1 230.62C232.73 230.62 235.34 233.03 235.59 236.61L235.61 236.96H241.22L241.19 236.56C240.79 230.27 235.91 226.05 229.05 226.05C222.19 226.05 217.6 230.08 217.6 235.63C217.6 240.3 220.52 243.24 226.29 244.38L230.8 245.25C234.35 246.02 235.8 247.27 235.8 249.57C235.8 252.43 233.24 254.28 229.27 254.28C224.89 254.28 222.35 252.09 222.13 248.12L222.11 247.77H216.49L216.52 248.17C216.93 254.76 221.85 258.86 229.36 258.86C236.87 258.86 241.63 254.87 241.63 248.93C241.63 244.37 238.88 241.68 232.99 240.48Z" fill="black"/>
<path d="M275.57 230.89C280.47 230.89 284.48 234.3 285.32 239.18L285.37 239.49H291.2L291.13 239.06C289.94 231.28 283.52 225.84 275.52 225.84C266.67 225.84 259.73 233.12 259.73 242.41C259.73 251.7 266.67 259.07 275.52 259.07C283.53 259.07 289.95 253.62 291.13 245.81L291.2 245.38H285.37L285.32 245.69C284.47 250.59 280.47 254.02 275.57 254.02C269.6 254.02 265.44 249.25 265.44 242.41C265.44 235.57 269.61 230.89 275.57 230.89Z" fill="black"/>
<path d="M322.24 236.6C322.24 230.27 317.81 226.5 310.4 226.5H298.39V258.43H303.92V246.7H309.08L316.85 258.43H323.49L314.92 245.86C319.45 244.58 322.24 241.07 322.24 236.6ZM303.91 231.24H310.09C313.09 231.24 316.66 232.17 316.66 236.6C316.66 241.03 313.09 241.96 310.09 241.96H303.91V231.25V231.24Z" fill="black"/>
<path d="M348.34 218.03H342.22L337.3 224.99H342.94L348.34 218.03Z" fill="black"/>
<path d="M335.58 244.44H348.95V239.52H335.58V231.41H350.25V226.49H330.05V258.42H350.56V253.5H335.58V244.44Z" fill="black"/>
<path d="M368 226.49L355.77 258.42H361.4L364.27 250.69H377.21L380.03 258.42H385.92L373.78 226.49H368.01H368ZM375.5 246.08H365.98L370.78 233.16L375.5 246.08Z" fill="black"/>
<path d="M386.95 231.54H397.11V258.42H402.64V231.54H412.8V226.49H386.95V231.54Z" fill="black"/>
<path d="M424.84 226.49H419.31V258.42H424.84V226.49Z" fill="black"/>
<path d="M448.3 225.84C439.05 225.84 432.07 232.96 432.07 242.41C432.07 251.86 439.05 259.07 448.3 259.07C457.55 259.07 464.53 251.91 464.53 242.41C464.53 232.91 457.55 225.84 448.3 225.84ZM458.83 242.41C458.83 249.14 454.4 254.02 448.3 254.02C442.2 254.02 437.77 249.14 437.77 242.41C437.77 235.68 442.1 230.89 448.3 230.89C454.5 230.89 458.83 235.63 458.83 242.41Z" fill="black"/>
<path d="M493.01 249.35L477.56 226.49H471.77V258.42H476.95V234.91L492.79 258.42H498.19V226.49H493.01V249.35Z" fill="black"/>
<path d="M522.12 240.48L517.52 239.57C513.85 238.8 512.35 237.58 512.35 235.33C512.35 233.08 514.19 230.62 518.23 230.62C521.86 230.62 524.47 233.03 524.72 236.61L524.74 236.96H530.35L530.32 236.56C529.92 230.27 525.04 226.05 518.18 226.05C511.32 226.05 506.73 230.08 506.73 235.63C506.73 240.3 509.65 243.24 515.42 244.38L519.93 245.25C523.48 246.02 524.93 247.27 524.93 249.57C524.93 252.43 522.37 254.28 518.4 254.28C514.02 254.28 511.48 252.09 511.26 248.12L511.24 247.77H505.62L505.65 248.17C506.06 254.76 510.98 258.86 518.49 258.86C526 258.86 530.76 254.87 530.76 248.93C530.76 244.37 528.01 241.68 522.12 240.48Z" fill="black"/>
<path d="M431.49 135.02C426.14 130.26 418.43 126.86 408.36 124.82L404.95 124.13L396.06 143.04L399.05 143.62C404.51 144.69 408.66 146.41 411.5 148.76C414.34 151.12 415.76 154.28 415.76 158.24C415.76 161.56 414.77 164.42 412.79 166.83C410.81 169.24 408.13 171.06 404.76 172.29C401.39 173.52 397.5 174.14 393.12 174.14C385.3 174.14 379.31 172.16 375.13 168.2C370.95 164.24 368.65 158.99 368.22 152.46H345.57C346.21 160.39 348.51 167.29 352.48 173.18C356.44 179.07 361.9 183.65 368.86 186.91C375.82 190.18 384.06 191.81 393.59 191.81C403.12 191.81 411.44 190.23 418.24 187.07C425.04 183.91 430.29 179.55 433.98 173.98C437.67 168.41 439.52 162.1 439.52 155.03C439.52 146.46 436.84 139.8 431.49 135.03V135.02Z" fill="black"/>
</g>
<defs>
<clipPath id="clip0_342_179">
<rect width="535.61" height="259.08" fill="white"/>
</clipPath>
</defs>
</svg>
